<svg xmlns="http://www.w3.org/2000/svg" width="19" height="22.773" viewBox="0 0 19 22.773"><g transform="translate(-4 -2)"><path d="M16.659,2c.424,2.546-2.233,4.473-3.718,5.338a.558.558,0,0,1-.857-.571C12.337,5.083,13.265,2,16.659,2Z" transform="translate(1.356)" fill="#222"/><path d="M9.839,6.5a7.875,7.875,0,0,1,2.679.491,4.181,4.181,0,0,0,2.817,0A7.86,7.86,0,0,1,18.014,6.5,5.762,5.762,0,0,1,22.1,8.564c-4.088,3.192-2.92,8.447.9,9.839-1.219,3.348-3.536,5.615-5.571,5.615-1.752,0-1.751-.818-3.5-.818s-1.752.818-3.5.818C7.5,24.018,4,19.347,4,13.507,4,8.836,7.5,6.5,9.839,6.5Z" transform="translate(0 0.755)" fill="#222"/></g></svg>