<svg xmlns="http://www.w3.org/2000/svg" width="23.152" height="22.426" viewBox="0 0 23.152 22.426"><path d="M10.051,24.034H7.7a4.7,4.7,0,0,1-4.7-4.7V11.939a4.7,4.7,0,0,1,2.265-4.02L11.14,4.358a4.7,4.7,0,0,1,4.872,0l5.876,3.561a4.7,4.7,0,0,1,2.264,4.019v7.4a4.7,4.7,0,0,1-4.7,4.7H17.1m-7.051,0v-4.7a3.525,3.525,0,0,1,3.525-3.525h0A3.525,3.525,0,0,1,17.1,19.333v4.7m-7.051,0H17.1" transform="translate(-2 -2.608)" fill="none" stroke="#fff" stroke-linecap="round" stroke-linejoin="round" stroke-width="2"/></svg>