<svg xmlns="http://www.w3.org/2000/svg" xmlns:xlink="http://www.w3.org/1999/xlink" width="23.732" height="23.733" viewBox="0 0 23.732 23.733"><defs><radialGradient id="a" cx="0.133" cy="1.005" r="1.305" gradientTransform="translate(0)" gradientUnits="objectBoundingBox"><stop offset="0.09" stop-color="#fa8f21"/><stop offset="0.78" stop-color="#d82d7e"/></radialGradient><radialGradient id="b" cx="0.606" cy="1.05" r="1.029" gradientTransform="translate(0)" gradientUnits="objectBoundingBox"><stop offset="0.64" stop-color="#8c3aaa" stop-opacity="0"/><stop offset="1" stop-color="#8c3aaa"/></radialGradient></defs><path d="M7.912,11.867a3.955,3.955,0,1,1,3.955,3.956,3.955,3.955,0,0,1-3.955-3.956m-2.138,0a6.093,6.093,0,1,0,6.093-6.093,6.093,6.093,0,0,0-6.093,6.093m11-6.335A1.424,1.424,0,1,0,18.2,4.108h0a1.425,1.425,0,0,0-1.424,1.423m-9.7,15.994a6.559,6.559,0,0,1-2.2-.408A3.688,3.688,0,0,1,3.5,20.23a3.661,3.661,0,0,1-.888-1.364,6.553,6.553,0,0,1-.408-2.2c-.058-1.251-.069-1.627-.069-4.8s.012-3.544.069-4.8a6.6,6.6,0,0,1,.408-2.2A3.688,3.688,0,0,1,3.5,3.5a3.657,3.657,0,0,1,1.365-.888,6.553,6.553,0,0,1,2.2-.408c1.251-.058,1.627-.069,4.794-.069s3.544.012,4.8.069a6.6,6.6,0,0,1,2.2.408,3.676,3.676,0,0,1,1.365.888,3.676,3.676,0,0,1,.888,1.365,6.553,6.553,0,0,1,.408,2.2c.058,1.252.069,1.627.069,4.8s-.011,3.544-.069,4.8a6.583,6.583,0,0,1-.408,2.2,3.929,3.929,0,0,1-2.253,2.252,6.553,6.553,0,0,1-2.2.408c-1.251.058-1.627.069-4.8.069s-3.544-.011-4.794-.069M6.974.072a8.7,8.7,0,0,0-2.88.551,5.82,5.82,0,0,0-2.1,1.369,5.8,5.8,0,0,0-1.369,2.1,8.7,8.7,0,0,0-.551,2.88C.013,8.24,0,8.644,0,11.867s.013,3.627.072,4.892a8.7,8.7,0,0,0,.551,2.88,5.8,5.8,0,0,0,1.369,2.1,5.835,5.835,0,0,0,2.1,1.369,8.709,8.709,0,0,0,2.88.551c1.266.058,1.67.072,4.892.072s3.627-.013,4.892-.072a8.7,8.7,0,0,0,2.88-.551A6.067,6.067,0,0,0,23.11,19.64a8.68,8.68,0,0,0,.551-2.88c.058-1.266.071-1.67.071-4.892s-.013-3.627-.071-4.892a8.7,8.7,0,0,0-.551-2.88,5.836,5.836,0,0,0-1.369-2.1A5.807,5.807,0,0,0,19.64.623,8.69,8.69,0,0,0,16.76.072C15.495.014,15.09,0,11.868,0S8.24.013,6.974.072" fill="url(#a)"/><path d="M7.912,11.867a3.955,3.955,0,1,1,3.955,3.956,3.955,3.955,0,0,1-3.955-3.956m-2.138,0a6.093,6.093,0,1,0,6.093-6.093,6.093,6.093,0,0,0-6.093,6.093m11-6.335A1.424,1.424,0,1,0,18.2,4.108h0a1.425,1.425,0,0,0-1.424,1.423m-9.7,15.994a6.559,6.559,0,0,1-2.2-.408A3.688,3.688,0,0,1,3.5,20.23a3.661,3.661,0,0,1-.888-1.364,6.553,6.553,0,0,1-.408-2.2c-.058-1.251-.069-1.627-.069-4.8s.012-3.544.069-4.8a6.6,6.6,0,0,1,.408-2.2A3.688,3.688,0,0,1,3.5,3.5a3.657,3.657,0,0,1,1.365-.888,6.553,6.553,0,0,1,2.2-.408c1.251-.058,1.627-.069,4.794-.069s3.544.012,4.8.069a6.6,6.6,0,0,1,2.2.408,3.676,3.676,0,0,1,1.365.888,3.676,3.676,0,0,1,.888,1.365,6.553,6.553,0,0,1,.408,2.2c.058,1.252.069,1.627.069,4.8s-.011,3.544-.069,4.8a6.583,6.583,0,0,1-.408,2.2,3.929,3.929,0,0,1-2.253,2.252,6.553,6.553,0,0,1-2.2.408c-1.251.058-1.627.069-4.8.069s-3.544-.011-4.794-.069M6.974.072a8.7,8.7,0,0,0-2.88.551,5.82,5.82,0,0,0-2.1,1.369,5.8,5.8,0,0,0-1.369,2.1,8.7,8.7,0,0,0-.551,2.88C.013,8.24,0,8.644,0,11.867s.013,3.627.072,4.892a8.7,8.7,0,0,0,.551,2.88,5.8,5.8,0,0,0,1.369,2.1,5.835,5.835,0,0,0,2.1,1.369,8.709,8.709,0,0,0,2.88.551c1.266.058,1.67.072,4.892.072s3.627-.013,4.892-.072a8.7,8.7,0,0,0,2.88-.551A6.067,6.067,0,0,0,23.11,19.64a8.68,8.68,0,0,0,.551-2.88c.058-1.266.071-1.67.071-4.892s-.013-3.627-.071-4.892a8.7,8.7,0,0,0-.551-2.88,5.836,5.836,0,0,0-1.369-2.1A5.807,5.807,0,0,0,19.64.623,8.69,8.69,0,0,0,16.76.072C15.495.014,15.09,0,11.868,0S8.24.013,6.974.072" fill="url(#b)"/></svg>