<svg xmlns="http://www.w3.org/2000/svg" width="22" height="22" viewBox="0 0 22 22"><g transform="translate(-1 -1)"><path d="M12,15a3,3,0,1,0-3-3A3,3,0,0,0,12,15Z" fill="none" stroke="#3d5fcc" stroke-linecap="round" stroke-linejoin="round" stroke-width="2"/><path d="M19.622,10.4l-1.1-2.65L20,6,18,4,16.265,5.483,13.558,4.37,12.935,2H10.981l-.632,2.4L7.7,5.516,6,4,4,6,5.453,7.789l-1.08,2.657L2,11v2l2.4.655L5.516,16.3,4,18l2,2,1.791-1.46L10.4,19.612,11,22h2l.6-2.387,2.651-1.1C16.7,18.831,18,20,18,20l2-2-1.484-1.75,1.1-2.652L22,12.978V11Z" fill="none" stroke="#3d5fcc" stroke-linecap="round" stroke-linejoin="round" stroke-width="2"/></g></svg>