<svg xmlns="http://www.w3.org/2000/svg" width="21.5" height="17.472" viewBox="0 0 21.5 17.472"><path d="M21.5,4.316a8.807,8.807,0,0,1-2.533.694,4.418,4.418,0,0,0,1.939-2.44,8.836,8.836,0,0,1-2.8,1.071,4.414,4.414,0,0,0-7.517,4.022A12.522,12.522,0,0,1,1.5,3.055,4.417,4.417,0,0,0,2.861,8.944a4.392,4.392,0,0,1-2-.552A4.414,4.414,0,0,0,4.4,12.773a4.421,4.421,0,0,1-1.992.075,4.414,4.414,0,0,0,4.121,3.063A8.869,8.869,0,0,1,0,17.739,12.487,12.487,0,0,0,6.762,19.72,12.475,12.475,0,0,0,19.3,6.6a8.98,8.98,0,0,0,2.2-2.283Z" transform="translate(0 -2.248)" fill="#00acee"/></svg>