<svg xmlns="http://www.w3.org/2000/svg" width="21.733" height="22.002" viewBox="0 0 21.733 22.002"><g transform="translate(-1.25 -0.999)"><path d="M22,12A10,10,0,1,0,12,22M13,2.05A17.669,17.669,0,0,1,16,12" fill="none" stroke="#3d5fcc" stroke-linecap="round" stroke-linejoin="round" stroke-width="1.5"/><path d="M11,21.95A17.669,17.669,0,0,1,8,12a17.669,17.669,0,0,1,3-9.95M2.63,15.5H12m-9.37-7H21.37" fill="none" stroke="#3d5fcc" stroke-linecap="round" stroke-linejoin="round" stroke-width="1.5"/><path d="M21.879,17.917c.494.3.463,1.043-.045,1.1l-2.567.291-1.151,2.312c-.228.459-.933.234-1.05-.334l-1.255-6.116a.479.479,0,0,1,.75-.525l5.318,3.271Z" fill="none" stroke="#3d5fcc" stroke-width="1.5"/></g></svg>